# xmcd
#
# Track frame offsets:
#	150
#	14725
#	30714
#	46087
#	62371
#	78993
#	99101
#	115567
#	130591
#	143730
#	161810
#	180954
#	197517
#	213009
#	238022
#
# Disc length: 3398 seconds
#
# Revision: 1
# Processed by: cddbd v1.5.2PL0 Copyright (c) Steve Scherf et al.
# Submitted via: audiograbber 1.83.01
#
DISCID=b00d440f
DTITLE=Josh Turner - Haywire (Deluxe Edition)
DYEAR=2010
DGENRE=Country
TTITLE0=Why Don't We Just Dance
TTITLE1=I Wouldn't Be A Man
TTITLE2=Haywire
TTITLE3=Your Smile
TTITLE4=Lovin' You On My Mind
TTITLE5=As Fast As I Could
TTITLE6=I'll Be There
TTITLE7=All Over Me
TTITLE8=Eye Candy
TTITLE9=Friday Paycheck
TTITLE10=The Answer
TTITLE11=This Kind Of Love
TTITLE12=Let's Find A Church
TTITLE13=Long Black Train (Live)
TTITLE14=Your Man (Live)
EXTD=
EXTT0=
EXTT1=
EXTT2=
EXTT3=
EXTT4=
EXTT5=
EXTT6=
EXTT7=
EXTT8=
EXTT9=
EXTT10=
EXTT11=
EXTT12=
EXTT13=
EXTT14=
PLAYORDER=
